<?xml version="1.0" standalone="no"?>
<!DOCTYPE svg PUBLIC "-//W3C//DTD SVG 20010904//EN"
 "http://www.w3.org/TR/2001/REC-SVG-20010904/DTD/svg10.dtd">
<svg version="1.0" xmlns="http://www.w3.org/2000/svg"
 width="301.000000pt" height="301.000000pt" viewBox="0 0 301.000000 301.000000"
 preserveAspectRatio="xMidYMid meet">
<metadata>
Created by potrace 1.11, written by Peter Selinger 2001-2013
</metadata>
<g transform="translate(0.000000,301.000000) scale(0.100000,-0.100000)"
fill="#000000" stroke="none">
<path d="M1460 2933 c-25 -42 -54 -92 -65 -112 -11 -20 -46 -79 -76 -131 -31
-52 -66 -111 -77 -130 -11 -19 -87 -151 -170 -293 -156 -265 -156 -266 -122
-317 9 -14 31 -50 47 -80 28 -50 776 -1356 905 -1580 l55 -95 231 -3 231 -2
-96 162 c-53 90 -109 188 -126 218 -17 30 -38 66 -47 80 -9 14 -28 45 -42 70
-36 64 -59 104 -112 193 -25 43 -46 82 -46 87 0 6 -4 10 -10 10 -5 0 -10 5
-10 10 0 6 -20 43 -44 83 -24 39 -53 89 -65 109 -42 75 -60 106 -155 267 -53
90 -96 165 -96 167 0 2 -15 27 -32 57 -18 29 -38 61 -45 72 -15 25 -60 103
-101 177 l-32 56 81 134 c44 73 84 140 89 148 5 8 50 82 99 164 l90 149 -43
81 c-24 45 -72 135 -105 201 -34 65 -63 120 -64 121 -1 1 -22 -32 -47 -73z"/>
<path d="M1804 2369 c-15 -24 -67 -108 -115 -187 l-87 -143 60 -107 c34 -59
126 -222 206 -362 80 -140 155 -273 167 -295 13 -22 58 -101 100 -175 43 -74
91 -160 108 -190 17 -30 61 -108 99 -174 37 -65 68 -120 68 -122 0 -2 18 -33
40 -69 22 -36 40 -67 40 -69 0 -3 17 -32 37 -66 43 -74 24 -90 170 144 l105
169 -19 34 c-10 18 -65 115 -123 215 -57 101 -110 192 -116 203 -31 56 -360
624 -375 650 -11 17 -22 37 -26 45 -5 12 -194 341 -289 504 l-22 39 -28 -44z"/>
<path d="M690 1618 c-58 -99 -109 -191 -113 -204 -7 -19 18 -72 141 -296 312
-568 362 -661 362 -667 0 -4 -29 -64 -65 -133 -36 -70 -65 -128 -65 -131 0 -3
728 -1 766 2 7 1 -28 70 -77 153 -49 84 -92 160 -96 168 -3 8 -16 31 -28 50
-12 19 -34 58 -50 85 -29 53 -352 615 -416 725 -40 70 -42 74 -164 288 -44 78
-82 142 -85 142 -3 0 -52 -82 -110 -182z"/>
<path d="M443 1188 c-9 -11 -139 -230 -169 -283 -6 -11 -25 -44 -43 -73 l-31
-53 68 -127 c38 -70 72 -134 75 -142 4 -8 18 -33 30 -55 13 -22 44 -80 71
-130 141 -263 170 -315 176 -315 3 0 22 30 43 67 20 38 44 79 52 93 8 14 47
81 86 150 67 119 70 126 56 150 -8 14 -101 183 -207 375 -106 193 -193 351
-195 353 -1 1 -7 -3 -12 -10z"/>
</g>
</svg>
